<?xml version="1.0" encoding="UTF-8" standalone="no"?>
<!-- Created with Inkscape (http://www.inkscape.org/) -->

<svg
   xmlns:dc="http://purl.org/dc/elements/1.1/"
   xmlns:cc="http://creativecommons.org/ns#"
   xmlns:rdf="http://www.w3.org/1999/02/22-rdf-syntax-ns#"
   xmlns:svg="http://www.w3.org/2000/svg"
   xmlns="http://www.w3.org/2000/svg"
   xmlns:sodipodi="http://sodipodi.sourceforge.net/DTD/sodipodi-0.dtd"
   xmlns:inkscape="http://www.inkscape.org/namespaces/inkscape"
   width="500"
   height="400"
   viewBox="0 0 132.29166 105.83334"
   version="1.1"
   id="svg8"
   inkscape:version="0.92.2 2405546, 2018-03-11"
   sodipodi:docname="jastersind.svg">
  <defs
     id="defs2" />
  <sodipodi:namedview
     id="base"
     pagecolor="#ffffff"
     bordercolor="#666666"
     borderopacity="1.0"
     inkscape:pageopacity="0.0"
     inkscape:pageshadow="2"
     inkscape:zoom="0.98994949"
     inkscape:cx="303.70706"
     inkscape:cy="167.68776"
     inkscape:document-units="mm"
     inkscape:current-layer="layer1"
     showgrid="false"
     inkscape:window-width="1366"
     inkscape:window-height="708"
     inkscape:window-x="0"
     inkscape:window-y="0"
     inkscape:window-maximized="1"
     inkscape:pagecheckerboard="true"
     units="px"
     inkscape:snap-bbox="true"
     inkscape:snap-bbox-midpoints="true"
     inkscape:bbox-paths="true"
     inkscape:snap-bbox-edge-midpoints="true"
     inkscape:bbox-nodes="true"
     inkscape:snap-midpoints="true"
     inkscape:snap-smooth-nodes="true"
     inkscape:snap-object-midpoints="true"
     inkscape:snap-center="true"
     inkscape:snap-global="false">
    <sodipodi:guide
       position="0,0"
       orientation="0,500"
       id="guide830"
       inkscape:locked="false" />
    <sodipodi:guide
       position="132.29167,0"
       orientation="-400,0"
       id="guide832"
       inkscape:locked="false" />
    <sodipodi:guide
       position="132.29167,105.83333"
       orientation="0,-500"
       id="guide834"
       inkscape:locked="false" />
    <sodipodi:guide
       position="0,105.83333"
       orientation="400,0"
       id="guide836"
       inkscape:locked="false" />
  </sodipodi:namedview>
  <metadata
     id="metadata5">
    <rdf:RDF>
      <cc:Work
         rdf:about="">
        <dc:format>image/svg+xml</dc:format>
        <dc:type
           rdf:resource="http://purl.org/dc/dcmitype/StillImage" />
        <dc:title />
      </cc:Work>
    </rdf:RDF>
  </metadata>
  <g
     inkscape:label="Livello 1"
     inkscape:groupmode="layer"
     id="layer1"
     transform="translate(0,-191.16664)">
    <rect
       style="opacity:1;fill:#fefefe;fill-opacity:1;fill-rule:nonzero;stroke:none;stroke-width:2.11666656;stroke-linecap:round;stroke-linejoin:round;stroke-miterlimit:4;stroke-dasharray:none;stroke-dashoffset:0;stroke-opacity:1;paint-order:stroke fill markers"
       id="rect838"
       width="132.29167"
       height="105.83333"
       x="0"
       y="191.16664"
       inkscape:export-xdpi="300"
       inkscape:export-ydpi="300" />
    <g
       id="g892"
       transform="matrix(0.69546881,0,0,0.69546881,21.615561,67.198111)">
      <path
         inkscape:connector-curvature="0"
         id="path815"
         d="m 43.920833,244.61247 c -8.767519,0 -15.875,7.10748 -15.875,15.875 0,8.76752 7.107481,15.875 15.875,15.875 7.668617,0 14.066961,-5.43765 15.550472,-12.66744 h -8.289933 c -1.232431,2.78548 -4.018631,4.72994 -7.260539,4.72994 -4.38376,0 -7.9375,-3.55374 -7.9375,-7.9375 0,-4.38376 3.55374,-7.9375 7.9375,-7.9375 3.242318,0 6.028862,1.94494 7.261055,4.73098 h 8.289933 c -1.483085,-7.23034 -7.881982,-12.66848 -15.550988,-12.66848 z"
         style="opacity:1;fill:#f50a0a;fill-opacity:1;fill-rule:nonzero;stroke:none;stroke-width:21.16666603;stroke-linecap:round;stroke-linejoin:round;stroke-miterlimit:4;stroke-dasharray:none;stroke-dashoffset:0;stroke-opacity:1;paint-order:stroke fill markers" />
      <path
         inkscape:connector-curvature="0"
         id="circle817"
         d="m 84.137499,244.61247 c -3.158858,0 -6.099495,0.92618 -8.572603,2.51665 l 5.836335,5.90506 c 0.853022,-0.31328 1.774608,-0.48421 2.736268,-0.48421 4.38376,0 7.9375,3.55374 7.9375,7.9375 0,4.38376 -3.55374,7.9375 -7.9375,7.9375 -3.241908,0 -6.028108,-1.94446 -7.260539,-4.72994 h -8.289933 c 1.483511,7.22979 7.881855,12.66744 15.550472,12.66744 8.767519,0 15.875001,-7.10748 15.875001,-15.875 0,-8.76752 -7.107482,-15.875 -15.875001,-15.875 z m -13.258106,7.1453 c -1.08988,1.65185 -1.881537,3.51779 -2.292882,5.52318 h 7.750947 z"
         style="opacity:1;fill:#f50a0a;fill-opacity:1;fill-rule:nonzero;stroke:none;stroke-width:21.16666603;stroke-linecap:round;stroke-linejoin:round;stroke-miterlimit:4;stroke-dasharray:none;stroke-dashoffset:0;stroke-opacity:1;paint-order:stroke fill markers" />
      <path
         inkscape:connector-curvature="0"
         id="circle819"
         d="m 84.1375,204.92497 c -7.668443,0 -14.066772,5.43739 -15.550473,12.66693 h 8.290451 c 1.232573,-2.78514 4.018357,-4.72943 7.260022,-4.72943 4.383759,0 7.937499,3.55374 7.937499,7.9375 0,4.38376 -3.55374,7.9375 -7.937499,7.9375 -3.242485,0 -6.028958,-1.94522 -7.261056,-4.73149 h -8.289933 c 1.482894,7.23059 7.881805,12.66899 15.550989,12.66899 8.767519,0 15.875,-7.10748 15.875,-15.875 0,-8.76752 -7.107481,-15.875 -15.875,-15.875 z"
         style="opacity:1;fill:#f50a0a;fill-opacity:1;fill-rule:nonzero;stroke:none;stroke-width:21.16666603;stroke-linecap:round;stroke-linejoin:round;stroke-miterlimit:4;stroke-dasharray:none;stroke-dashoffset:0;stroke-opacity:1;paint-order:stroke fill markers" />
      <path
         id="circle821"
         transform="matrix(0.26458333,0,0,0.26458333,0,191.16664)"
         d="m 166,52 c -33.13708,0 -60,26.862917 -60,60 0,33.13708 26.86292,60 60,60 11.93647,0 23.04858,-3.49894 32.39453,-9.50781 L 176.33789,140.16992 C 173.11483,141.35317 169.63334,142 166,142 c -16.56854,0 -30,-13.43146 -30,-30 0,-16.568542 13.43146,-30 30,-30 12.25196,0 22.78091,7.348471 27.43945,17.875 h 31.33399 C 219.16575,72.550736 194.98309,52 166,52 Z m 29.46094,72.11719 20.64062,20.88476 c 4.12265,-6.24594 7.1185,-13.30097 8.67383,-20.88476 z"
         style="opacity:1;fill:#292929;fill-opacity:1;fill-rule:nonzero;stroke:none;stroke-width:80;stroke-linecap:round;stroke-linejoin:round;stroke-miterlimit:4;stroke-dasharray:none;stroke-dashoffset:0;stroke-opacity:1;paint-order:stroke fill markers"
         inkscape:connector-curvature="0" />
    </g>
    <g
       id="g905"
       transform="matrix(2,0,0,2,-66.932855,-241.09947)" />
    <path
       sodipodi:nodetypes="sssss"
       inkscape:connector-curvature="0"
       id="path840"
       d="m -79.374986,267.36665 c 0,8.76752 -7.107479,15.875 -15.875,15.875 -8.767514,0 -15.875004,-7.10748 -15.875004,-15.875 0,-8.76752 7.10749,-15.875 15.875004,-15.875 8.767521,0 15.875,7.10748 15.875,15.875 z"
       style="opacity:1;fill:#f50a0a;fill-opacity:1;fill-rule:nonzero;stroke:none;stroke-width:21.16666603;stroke-linecap:round;stroke-linejoin:round;stroke-miterlimit:4;stroke-dasharray:none;stroke-dashoffset:0;stroke-opacity:1;paint-order:stroke fill markers" />
    <path
       sodipodi:nodetypes="sssss"
       inkscape:connector-curvature="0"
       id="path842"
       d="m -31.750024,267.36666 c 0,8.76752 -7.107477,15.875 -15.874998,15.875 -8.767519,0 -15.875,-7.10748 -15.875,-15.875 0,-8.76752 7.107481,-15.875 15.875,-15.875 8.767521,0 15.874998,7.10748 15.874998,15.875 z"
       style="opacity:1;fill:#f50a0a;fill-opacity:1;fill-rule:nonzero;stroke:none;stroke-width:21.16666603;stroke-linecap:round;stroke-linejoin:round;stroke-miterlimit:4;stroke-dasharray:none;stroke-dashoffset:0;stroke-opacity:1;paint-order:stroke fill markers" />
    <path
       sodipodi:nodetypes="sssss"
       inkscape:connector-curvature="0"
       id="path844"
       d="m -31.750024,220.79995 c 0,8.76752 -7.107477,15.875 -15.874998,15.875 -8.767519,0 -15.875,-7.10748 -15.875,-15.875 0,-8.76752 7.107481,-15.875 15.875,-15.875 8.767521,0 15.874998,7.10748 15.874998,15.875 z"
       style="opacity:1;fill:#f50a0a;fill-opacity:1;fill-rule:nonzero;stroke:none;stroke-width:21.16666603;stroke-linecap:round;stroke-linejoin:round;stroke-miterlimit:4;stroke-dasharray:none;stroke-dashoffset:0;stroke-opacity:1;paint-order:stroke fill markers" />
    <path
       sodipodi:nodetypes="sssss"
       inkscape:connector-curvature="0"
       id="path846"
       d="m -79.374994,220.79995 c 0,8.76752 -7.107479,15.875 -15.875,15.875 -8.767516,0 -15.875006,-7.10748 -15.875006,-15.875 0,-8.76752 7.10749,-15.875 15.875006,-15.875 8.767521,0 15.875,7.10748 15.875,15.875 z"
       style="opacity:1;fill:#ffffff;fill-opacity:1;fill-rule:nonzero;stroke:none;stroke-width:21.16666603;stroke-linecap:round;stroke-linejoin:round;stroke-miterlimit:4;stroke-dasharray:none;stroke-dashoffset:0;stroke-opacity:1;paint-order:stroke fill markers" />
    <g
       transform="matrix(2,0,0,2,-204.51625,-241.09947)"
       id="g858">
      <path
         style="color:#000000;font-style:normal;font-variant:normal;font-weight:normal;font-stretch:normal;font-size:medium;line-height:normal;font-family:sans-serif;font-variant-ligatures:normal;font-variant-position:normal;font-variant-caps:normal;font-variant-numeric:normal;font-variant-alternates:normal;font-feature-settings:normal;text-indent:0;text-align:start;text-decoration:none;text-decoration-line:none;text-decoration-style:solid;text-decoration-color:#000000;letter-spacing:normal;word-spacing:normal;text-transform:none;writing-mode:lr-tb;direction:ltr;text-orientation:mixed;dominant-baseline:auto;baseline-shift:baseline;text-anchor:start;white-space:normal;shape-padding:0;clip-rule:nonzero;display:inline;overflow:visible;visibility:visible;opacity:1;isolation:auto;mix-blend-mode:normal;color-interpolation:sRGB;color-interpolation-filters:linearRGB;solid-color:#000000;solid-opacity:1;vector-effect:none;fill:#000000;fill-opacity:1;fill-rule:nonzero;stroke:none;stroke-width:2.11666656;stroke-linecap:butt;stroke-linejoin:miter;stroke-miterlimit:4;stroke-dasharray:none;stroke-dashoffset:0;stroke-opacity:1;color-rendering:auto;image-rendering:auto;shape-rendering:auto;text-rendering:auto;enable-background:accumulate"
         d="m 52.037109,229.89062 23.810547,23.28321 H 54.632812 v 2.11719 h 26.408204 l -23.8125,-23.28321 h 21.216796 v -2.11719 z"
         id="path848"
         inkscape:connector-curvature="0" />
      <path
         style="opacity:1;fill:#000000;fill-opacity:1;fill-rule:nonzero;stroke:none;stroke-width:5.29166651;stroke-linecap:round;stroke-linejoin:round;stroke-miterlimit:4;stroke-dasharray:none;stroke-dashoffset:0;stroke-opacity:1;paint-order:stroke fill markers"
         d="m 58.601851,230.94971 c 0,2.19188 -1.77687,3.96875 -3.96875,3.96875 -2.19188,0 -3.96875,-1.77687 -3.96875,-3.96875 0,-2.19188 1.77687,-3.96875 3.96875,-3.96875 2.19188,0 3.96875,1.77687 3.96875,3.96875 z"
         id="path850"
         inkscape:connector-curvature="0"
         sodipodi:nodetypes="sssss" />
      <path
         style="opacity:1;fill:#000000;fill-opacity:1;fill-rule:nonzero;stroke:none;stroke-width:5.29166651;stroke-linecap:round;stroke-linejoin:round;stroke-miterlimit:4;stroke-dasharray:none;stroke-dashoffset:0;stroke-opacity:1;paint-order:stroke fill markers"
         d="m 82.414345,230.94971 c 0,2.19188 -1.77687,3.96875 -3.96875,3.96875 -2.19188,0 -3.96875,-1.77687 -3.96875,-3.96875 0,-2.19188 1.77687,-3.96875 3.96875,-3.96875 2.19188,0 3.96875,1.77687 3.96875,3.96875 z"
         id="path852"
         inkscape:connector-curvature="0"
         sodipodi:nodetypes="sssss" />
      <path
         style="opacity:1;fill:#000000;fill-opacity:1;fill-rule:nonzero;stroke:none;stroke-width:5.29166651;stroke-linecap:round;stroke-linejoin:round;stroke-miterlimit:4;stroke-dasharray:none;stroke-dashoffset:0;stroke-opacity:1;paint-order:stroke fill markers"
         d="m 82.414345,254.23303 c 0,2.19188 -1.77687,3.96875 -3.96875,3.96875 -2.19188,0 -3.96875,-1.77687 -3.96875,-3.96875 0,-2.19188 1.77687,-3.96875 3.96875,-3.96875 2.19188,0 3.96875,1.77687 3.96875,3.96875 z"
         id="path854"
         inkscape:connector-curvature="0"
         sodipodi:nodetypes="sssss" />
      <path
         style="opacity:1;fill:#000000;fill-opacity:1;fill-rule:nonzero;stroke:none;stroke-width:5.29166651;stroke-linecap:round;stroke-linejoin:round;stroke-miterlimit:4;stroke-dasharray:none;stroke-dashoffset:0;stroke-opacity:1;paint-order:stroke fill markers"
         d="m 58.601847,254.23303 c 0,2.19188 -1.77687,3.96875 -3.96875,3.96875 -2.19188,0 -3.96875,-1.77687 -3.96875,-3.96875 0,-2.19188 1.77687,-3.96875 3.96875,-3.96875 2.19188,0 3.96875,1.77687 3.96875,3.96875 z"
         id="path856"
         inkscape:connector-curvature="0"
         sodipodi:nodetypes="sssss" />
    </g>
    <text
       xml:space="preserve"
       style="font-style:normal;font-variant:normal;font-weight:normal;font-stretch:normal;font-size:21.16666603px;line-height:1.25;font-family:Sniglet;-inkscape-font-specification:Sniglet;text-align:center;letter-spacing:0px;word-spacing:0px;text-anchor:middle;fill:#f50a0a;fill-opacity:1;stroke:none;stroke-width:0.52916664"
       x="197.87596"
       y="286.21597"
       id="text896"><tspan
         sodipodi:role="line"
         id="tspan894"
         x="197.87596"
         y="286.21597"
         style="font-style:normal;font-variant:normal;font-weight:normal;font-stretch:normal;font-family:Sniglet;-inkscape-font-specification:Sniglet;fill:#f50a0a;fill-opacity:1;stroke-width:0.52916664"><tspan
   style="font-style:normal;font-variant:normal;font-weight:normal;font-stretch:normal;font-family:Sniglet;-inkscape-font-specification:Sniglet;fill:#292929;fill-opacity:1;stroke-width:0.52916664"
   id="tspan898">Jaster</tspan>Sind</tspan></text>
    <text
       id="text904"
       y="282.418"
       x="66.647659"
       style="font-style:normal;font-variant:normal;font-weight:normal;font-stretch:normal;font-size:16.61957741px;line-height:1.25;font-family:Anton;-inkscape-font-specification:Anton;text-align:center;letter-spacing:0px;word-spacing:0px;text-anchor:middle;fill:#f50a0a;fill-opacity:1;stroke:none;stroke-width:0.41548991"
       xml:space="preserve"><tspan
         style="font-style:normal;font-variant:normal;font-weight:normal;font-stretch:normal;font-family:Anton;-inkscape-font-specification:Anton;fill:#f50a0a;fill-opacity:1;stroke-width:0.41548991"
         y="282.418"
         x="66.647659"
         id="tspan902"
         sodipodi:role="line"><tspan
   id="tspan900"
   style="font-style:normal;font-variant:normal;font-weight:normal;font-stretch:normal;font-family:Anton;-inkscape-font-specification:Anton;fill:#292929;fill-opacity:1;stroke-width:0.41548991">Jaster</tspan>Sind</tspan></text>
  </g>
</svg>
